<mxfile host="app.diagrams.net" modified="2020-10-22T12:22:59.155Z" agent="5.0 (Macintosh; Intel Mac OS X 10_15_5) AppleWebKit/605.1.15 (KHTML, like Gecko) Version/13.1.1 Safari/605.1.15" etag="bN4JnNuX0kSX5dzvrvss" version="13.8.1" type="github">
  <diagram id="kgpKYQtTHZ0yAKxKKP6v" name="Page-1">
    <mxGraphModel dx="953" dy="681" grid="1" gridSize="10" guides="1" tooltips="1" connect="1" arrows="1" fold="1" page="1" pageScale="1" pageWidth="850" pageHeight="1100" math="0" shadow="0">
      <root>
        <mxCell id="0" />
        <mxCell id="1" parent="0" />
        <mxCell id="mJ4E80UMNXYQeGc1e3ib-2" value="TitanServiceImpl" style="shape=umlLifeline;perimeter=lifelinePerimeter;whiteSpace=wrap;html=1;container=1;collapsible=0;recursiveResize=0;outlineConnect=0;rounded=1;shadow=0;comic=0;labelBackgroundColor=none;strokeWidth=1;fontFamily=Verdana;fontSize=14;align=center;" vertex="1" parent="1">
          <mxGeometry x="240" y="230" width="130" height="920" as="geometry" />
        </mxCell>
        <mxCell id="mJ4E80UMNXYQeGc1e3ib-3" value="" style="html=1;points=[];perimeter=orthogonalPerimeter;rounded=0;shadow=0;comic=0;labelBackgroundColor=none;strokeWidth=1;fontFamily=Verdana;fontSize=12;align=center;" vertex="1" parent="mJ4E80UMNXYQeGc1e3ib-2">
          <mxGeometry x="60" y="95" width="10" height="30" as="geometry" />
        </mxCell>
        <mxCell id="mJ4E80UMNXYQeGc1e3ib-4" value="collectService" style="shape=umlLifeline;perimeter=lifelinePerimeter;whiteSpace=wrap;html=1;container=1;collapsible=0;recursiveResize=0;outlineConnect=0;rounded=1;shadow=0;comic=0;labelBackgroundColor=none;strokeWidth=1;fontFamily=Verdana;fontSize=14;align=center;" vertex="1" parent="1">
          <mxGeometry x="380" y="230" width="100" height="920" as="geometry" />
        </mxCell>
        <mxCell id="mJ4E80UMNXYQeGc1e3ib-5" value="" style="html=1;points=[];perimeter=orthogonalPerimeter;rounded=0;shadow=0;comic=0;labelBackgroundColor=none;strokeWidth=1;fontFamily=Verdana;fontSize=12;align=center;" vertex="1" parent="mJ4E80UMNXYQeGc1e3ib-4">
          <mxGeometry x="45" y="80" width="10" height="480" as="geometry" />
        </mxCell>
        <mxCell id="mJ4E80UMNXYQeGc1e3ib-6" value="CollectTaskRepository" style="shape=umlLifeline;perimeter=lifelinePerimeter;whiteSpace=wrap;html=1;container=1;collapsible=0;recursiveResize=0;outlineConnect=0;rounded=1;shadow=0;comic=0;labelBackgroundColor=none;strokeWidth=1;fontFamily=Verdana;fontSize=14;align=center;" vertex="1" parent="1">
          <mxGeometry x="570" y="230" width="160" height="920" as="geometry" />
        </mxCell>
        <mxCell id="mJ4E80UMNXYQeGc1e3ib-7" value="" style="html=1;points=[];perimeter=orthogonalPerimeter;rounded=0;shadow=0;comic=0;labelBackgroundColor=none;strokeWidth=1;fontFamily=Verdana;fontSize=12;align=center;" vertex="1" parent="mJ4E80UMNXYQeGc1e3ib-6">
          <mxGeometry x="75" y="130" width="10" height="50" as="geometry" />
        </mxCell>
        <mxCell id="mJ4E80UMNXYQeGc1e3ib-8" value="" style="html=1;points=[];perimeter=orthogonalPerimeter;rounded=0;shadow=0;comic=0;labelBackgroundColor=none;strokeWidth=1;fontFamily=Verdana;fontSize=12;align=center;" vertex="1" parent="mJ4E80UMNXYQeGc1e3ib-6">
          <mxGeometry x="75" y="400" width="10" height="30" as="geometry" />
        </mxCell>
        <mxCell id="mJ4E80UMNXYQeGc1e3ib-9" value="3:&lt;span style=&quot;font-size: 14px;&quot;&gt;查询采集任务是否存在&lt;/span&gt;&lt;br style=&quot;font-size: 14px;&quot;&gt;&lt;span style=&quot;font-size: 14px;&quot;&gt;agdsdatahub_dmc_task&lt;/span&gt;" style="text;html=1;align=center;verticalAlign=middle;resizable=0;points=[];autosize=1;fontSize=14;" vertex="1" parent="mJ4E80UMNXYQeGc1e3ib-6">
          <mxGeometry x="-95" y="120" width="170" height="40" as="geometry" />
        </mxCell>
        <mxCell id="mJ4E80UMNXYQeGc1e3ib-10" value="" style="html=1;points=[];perimeter=orthogonalPerimeter;rounded=0;shadow=0;comic=0;labelBackgroundColor=none;strokeWidth=1;fontFamily=Verdana;fontSize=12;align=center;" vertex="1" parent="mJ4E80UMNXYQeGc1e3ib-6">
          <mxGeometry x="75" y="490" width="10" height="30" as="geometry" />
        </mxCell>
        <mxCell id="mJ4E80UMNXYQeGc1e3ib-11" value="" style="html=1;points=[];perimeter=orthogonalPerimeter;rounded=0;shadow=0;comic=0;labelBackgroundColor=none;strokeWidth=1;fontFamily=Verdana;fontSize=12;align=center;" vertex="1" parent="mJ4E80UMNXYQeGc1e3ib-6">
          <mxGeometry x="75" y="740" width="10" height="30" as="geometry" />
        </mxCell>
        <mxCell id="mJ4E80UMNXYQeGc1e3ib-12" value="借呗" style="shape=umlLifeline;perimeter=lifelinePerimeter;whiteSpace=wrap;html=1;container=1;collapsible=0;recursiveResize=0;outlineConnect=0;rounded=1;shadow=0;comic=0;labelBackgroundColor=none;strokeWidth=1;fontFamily=Verdana;fontSize=14;align=center;" vertex="1" parent="1">
          <mxGeometry x="120" y="230" width="100" height="920" as="geometry" />
        </mxCell>
        <mxCell id="mJ4E80UMNXYQeGc1e3ib-13" value="" style="html=1;points=[];perimeter=orthogonalPerimeter;rounded=0;shadow=0;comic=0;labelBackgroundColor=none;strokeWidth=1;fontFamily=Verdana;fontSize=12;align=center;" vertex="1" parent="mJ4E80UMNXYQeGc1e3ib-12">
          <mxGeometry x="45" y="80" width="10" height="30" as="geometry" />
        </mxCell>
        <mxCell id="mJ4E80UMNXYQeGc1e3ib-14" value="4:存在-返回" style="html=1;verticalAlign=bottom;endArrow=block;labelBackgroundColor=none;fontFamily=Verdana;fontSize=14;elbow=vertical;edgeStyle=orthogonalEdgeStyle;curved=1;" edge="1" parent="1">
          <mxGeometry x="-0.3277" y="-41" relative="1" as="geometry">
            <mxPoint x="440" y="420" as="sourcePoint" />
            <mxPoint x="440" y="459" as="targetPoint" />
            <Array as="points">
              <mxPoint x="480" y="420.1" />
              <mxPoint x="480" y="459.1" />
            </Array>
            <mxPoint x="81" y="10" as="offset" />
          </mxGeometry>
        </mxCell>
        <mxCell id="mJ4E80UMNXYQeGc1e3ib-15" value="2:采集方法&lt;br style=&quot;font-size: 14px&quot;&gt;collectObject" style="text;html=1;align=center;verticalAlign=middle;resizable=0;points=[];autosize=1;fontSize=14;" vertex="1" parent="1">
          <mxGeometry x="320" y="315" width="100" height="40" as="geometry" />
        </mxCell>
        <mxCell id="mJ4E80UMNXYQeGc1e3ib-16" value="" style="endArrow=classic;html=1;exitX=1;exitY=0.169;exitDx=0;exitDy=0;exitPerimeter=0;" edge="1" parent="1" source="mJ4E80UMNXYQeGc1e3ib-5" target="mJ4E80UMNXYQeGc1e3ib-6">
          <mxGeometry width="50" height="50" relative="1" as="geometry">
            <mxPoint x="610" y="490" as="sourcePoint" />
            <mxPoint x="660" y="440" as="targetPoint" />
          </mxGeometry>
        </mxCell>
        <mxCell id="mJ4E80UMNXYQeGc1e3ib-17" value="" style="endArrow=classic;html=1;entryX=-0.2;entryY=0.1;entryDx=0;entryDy=0;entryPerimeter=0;" edge="1" parent="1" target="mJ4E80UMNXYQeGc1e3ib-3">
          <mxGeometry width="50" height="50" relative="1" as="geometry">
            <mxPoint x="180" y="328" as="sourcePoint" />
            <mxPoint x="660" y="430" as="targetPoint" />
            <Array as="points">
              <mxPoint x="290" y="328" />
            </Array>
          </mxGeometry>
        </mxCell>
        <mxCell id="mJ4E80UMNXYQeGc1e3ib-18" value="1:开始采集&lt;br style=&quot;font-size: 14px;&quot;&gt;collectObject" style="text;html=1;align=center;verticalAlign=middle;resizable=0;points=[];autosize=1;fontSize=14;" vertex="1" parent="1">
          <mxGeometry x="180" y="290" width="100" height="40" as="geometry" />
        </mxCell>
        <mxCell id="mJ4E80UMNXYQeGc1e3ib-19" value="" style="endArrow=classic;html=1;exitX=1.1;exitY=0.8;exitDx=0;exitDy=0;exitPerimeter=0;" edge="1" parent="1" source="mJ4E80UMNXYQeGc1e3ib-3" target="mJ4E80UMNXYQeGc1e3ib-4">
          <mxGeometry width="50" height="50" relative="1" as="geometry">
            <mxPoint x="610" y="470" as="sourcePoint" />
            <mxPoint x="660" y="420" as="targetPoint" />
          </mxGeometry>
        </mxCell>
        <mxCell id="mJ4E80UMNXYQeGc1e3ib-20" value="DataObjectRepository" style="shape=umlLifeline;perimeter=lifelinePerimeter;whiteSpace=wrap;html=1;container=1;collapsible=0;recursiveResize=0;outlineConnect=0;rounded=1;shadow=0;comic=0;labelBackgroundColor=none;strokeWidth=1;fontFamily=Verdana;fontSize=14;align=center;" vertex="1" parent="1">
          <mxGeometry x="760" y="230" width="160" height="920" as="geometry" />
        </mxCell>
        <mxCell id="mJ4E80UMNXYQeGc1e3ib-21" value="" style="html=1;points=[];perimeter=orthogonalPerimeter;rounded=0;shadow=0;comic=0;labelBackgroundColor=none;strokeWidth=1;fontFamily=Verdana;fontSize=12;align=center;" vertex="1" parent="mJ4E80UMNXYQeGc1e3ib-20">
          <mxGeometry x="75" y="250" width="10" height="40" as="geometry" />
        </mxCell>
        <mxCell id="mJ4E80UMNXYQeGc1e3ib-22" value="" style="endArrow=classic;html=1;" edge="1" parent="1" source="mJ4E80UMNXYQeGc1e3ib-4" target="mJ4E80UMNXYQeGc1e3ib-20">
          <mxGeometry width="50" height="50" relative="1" as="geometry">
            <mxPoint x="610" y="470" as="sourcePoint" />
            <mxPoint x="660" y="420" as="targetPoint" />
            <Array as="points">
              <mxPoint x="570" y="500" />
            </Array>
          </mxGeometry>
        </mxCell>
        <mxCell id="mJ4E80UMNXYQeGc1e3ib-23" value="&lt;font style=&quot;font-size: 14px&quot;&gt;&lt;span&gt;5:采集数据对象是否已经存在&lt;/span&gt;&lt;br&gt;&lt;span&gt;agdsdatahub_dmc_model_data&lt;/span&gt;&lt;/font&gt;" style="text;html=1;align=center;verticalAlign=middle;resizable=0;points=[];autosize=1;" vertex="1" parent="1">
          <mxGeometry x="600" y="440" width="210" height="40" as="geometry" />
        </mxCell>
        <mxCell id="mJ4E80UMNXYQeGc1e3ib-24" value="6:存在-抛出数据存在异常" style="html=1;verticalAlign=bottom;endArrow=block;labelBackgroundColor=none;fontFamily=Verdana;fontSize=14;elbow=vertical;edgeStyle=orthogonalEdgeStyle;curved=1;" edge="1" parent="1">
          <mxGeometry x="-0.3277" y="-71" relative="1" as="geometry">
            <mxPoint x="440" y="520" as="sourcePoint" />
            <mxPoint x="440" y="559" as="targetPoint" />
            <Array as="points">
              <mxPoint x="480" y="520.1" />
              <mxPoint x="480" y="559.1" />
            </Array>
            <mxPoint x="141" y="10" as="offset" />
          </mxGeometry>
        </mxCell>
        <mxCell id="mJ4E80UMNXYQeGc1e3ib-25" value="ScheduleClientImpl" style="shape=umlLifeline;perimeter=lifelinePerimeter;whiteSpace=wrap;html=1;container=1;collapsible=0;recursiveResize=0;outlineConnect=0;rounded=1;shadow=0;comic=0;labelBackgroundColor=none;strokeWidth=1;fontFamily=Verdana;fontSize=14;align=center;" vertex="1" parent="1">
          <mxGeometry x="970" y="230" width="140" height="920" as="geometry" />
        </mxCell>
        <mxCell id="mJ4E80UMNXYQeGc1e3ib-26" value="" style="html=1;points=[];perimeter=orthogonalPerimeter;rounded=0;shadow=0;comic=0;labelBackgroundColor=none;strokeWidth=1;fontFamily=Verdana;fontSize=12;align=center;" vertex="1" parent="mJ4E80UMNXYQeGc1e3ib-25">
          <mxGeometry x="65" y="330" width="10" height="50" as="geometry" />
        </mxCell>
        <mxCell id="mJ4E80UMNXYQeGc1e3ib-27" value="" style="endArrow=classic;html=1;exitX=0.9;exitY=0.575;exitDx=0;exitDy=0;exitPerimeter=0;" edge="1" parent="1" source="mJ4E80UMNXYQeGc1e3ib-5" target="mJ4E80UMNXYQeGc1e3ib-25">
          <mxGeometry width="50" height="50" relative="1" as="geometry">
            <mxPoint x="610" y="570" as="sourcePoint" />
            <mxPoint x="660" y="520" as="targetPoint" />
          </mxGeometry>
        </mxCell>
        <mxCell id="mJ4E80UMNXYQeGc1e3ib-28" value="7:创建采集任务&lt;br style=&quot;font-size: 14px;&quot;&gt;createDelayTaskRecord" style="text;html=1;align=center;verticalAlign=middle;resizable=0;points=[];autosize=1;fontSize=14;" vertex="1" parent="1">
          <mxGeometry x="570" y="550" width="160" height="40" as="geometry" />
        </mxCell>
        <mxCell id="mJ4E80UMNXYQeGc1e3ib-29" value="" style="endArrow=classic;html=1;exitX=1;exitY=0.169;exitDx=0;exitDy=0;exitPerimeter=0;" edge="1" parent="1" target="mJ4E80UMNXYQeGc1e3ib-8">
          <mxGeometry width="50" height="50" relative="1" as="geometry">
            <mxPoint x="435" y="649.9999999999999" as="sourcePoint" />
            <mxPoint x="599.5" y="649.9999999999999" as="targetPoint" />
          </mxGeometry>
        </mxCell>
        <mxCell id="mJ4E80UMNXYQeGc1e3ib-30" value="&lt;font style=&quot;font-size: 14px&quot;&gt;8:更新采集任务状态INIT并保存&lt;br&gt;&lt;span&gt;dmc_collecting_task&lt;/span&gt;&lt;/font&gt;" style="text;html=1;align=center;verticalAlign=middle;resizable=0;points=[];autosize=1;fontSize=14;" vertex="1" parent="1">
          <mxGeometry x="430" y="600" width="210" height="40" as="geometry" />
        </mxCell>
        <mxCell id="mJ4E80UMNXYQeGc1e3ib-31" value="NormalDmcExecutor" style="shape=umlLifeline;perimeter=lifelinePerimeter;whiteSpace=wrap;html=1;container=1;collapsible=0;recursiveResize=0;outlineConnect=0;rounded=1;shadow=0;comic=0;labelBackgroundColor=none;strokeWidth=1;fontFamily=Verdana;fontSize=14;align=center;" vertex="1" parent="1">
          <mxGeometry x="1160" y="230" width="160" height="920" as="geometry" />
        </mxCell>
        <mxCell id="mJ4E80UMNXYQeGc1e3ib-32" value="" style="html=1;points=[];perimeter=orthogonalPerimeter;rounded=0;shadow=0;comic=0;labelBackgroundColor=none;strokeWidth=1;fontFamily=Verdana;fontSize=12;align=center;" vertex="1" parent="mJ4E80UMNXYQeGc1e3ib-31">
          <mxGeometry x="75" y="440" width="10" height="470" as="geometry" />
        </mxCell>
        <mxCell id="mJ4E80UMNXYQeGc1e3ib-33" value="" style="endArrow=classic;html=1;fontSize=14;" edge="1" parent="1" source="mJ4E80UMNXYQeGc1e3ib-5" target="mJ4E80UMNXYQeGc1e3ib-31">
          <mxGeometry width="50" height="50" relative="1" as="geometry">
            <mxPoint x="490" y="750" as="sourcePoint" />
            <mxPoint x="660" y="610" as="targetPoint" />
            <Array as="points">
              <mxPoint x="1060" y="700" />
            </Array>
          </mxGeometry>
        </mxCell>
        <mxCell id="mJ4E80UMNXYQeGc1e3ib-34" value="9:触发采集执行器" style="text;html=1;align=center;verticalAlign=middle;resizable=0;points=[];autosize=1;fontSize=14;" vertex="1" parent="1">
          <mxGeometry x="750" y="670" width="130" height="20" as="geometry" />
        </mxCell>
        <mxCell id="mJ4E80UMNXYQeGc1e3ib-35" value="" style="endArrow=classic;html=1;fontSize=14;" edge="1" parent="1" source="mJ4E80UMNXYQeGc1e3ib-31" target="mJ4E80UMNXYQeGc1e3ib-6">
          <mxGeometry width="50" height="50" relative="1" as="geometry">
            <mxPoint x="610" y="660" as="sourcePoint" />
            <mxPoint x="660" y="610" as="targetPoint" />
            <Array as="points">
              <mxPoint x="800" y="740" />
            </Array>
          </mxGeometry>
        </mxCell>
        <mxCell id="mJ4E80UMNXYQeGc1e3ib-36" value="&lt;font style=&quot;font-size: 14px&quot;&gt;10:取出采集任务&lt;br&gt;&lt;span style=&quot;text-align: left&quot;&gt;agdsdatahub_dmc_task&lt;/span&gt;&lt;/font&gt;" style="text;html=1;align=center;verticalAlign=middle;resizable=0;points=[];autosize=1;fontSize=14;" vertex="1" parent="1">
          <mxGeometry x="850" y="700" width="160" height="40" as="geometry" />
        </mxCell>
        <mxCell id="mJ4E80UMNXYQeGc1e3ib-37" value="" style="endArrow=classic;html=1;fontSize=14;entryX=1;entryY=0.6;entryDx=0;entryDy=0;entryPerimeter=0;" edge="1" parent="1" source="mJ4E80UMNXYQeGc1e3ib-31" target="mJ4E80UMNXYQeGc1e3ib-39">
          <mxGeometry width="50" height="50" relative="1" as="geometry">
            <mxPoint x="610" y="650" as="sourcePoint" />
            <mxPoint x="860" y="780" as="targetPoint" />
            <Array as="points">
              <mxPoint x="1010" y="780" />
              <mxPoint x="920" y="780" />
            </Array>
          </mxGeometry>
        </mxCell>
        <mxCell id="mJ4E80UMNXYQeGc1e3ib-38" value="&lt;font style=&quot;font-size: 14px&quot;&gt;11:采集数据对象是否已经存在&lt;br&gt;agdsdatahub_dm&lt;/font&gt;&lt;span style=&quot;font-size: 12px&quot;&gt;c_model_data&lt;/span&gt;" style="text;html=1;align=center;verticalAlign=middle;resizable=0;points=[];autosize=1;fontSize=14;" vertex="1" parent="1">
          <mxGeometry x="930" y="740" width="200" height="40" as="geometry" />
        </mxCell>
        <mxCell id="mJ4E80UMNXYQeGc1e3ib-39" value="" style="html=1;points=[];perimeter=orthogonalPerimeter;rounded=0;shadow=0;comic=0;labelBackgroundColor=none;strokeWidth=1;fontFamily=Verdana;fontSize=12;align=center;" vertex="1" parent="1">
          <mxGeometry x="835" y="760" width="10" height="30" as="geometry" />
        </mxCell>
        <mxCell id="mJ4E80UMNXYQeGc1e3ib-40" value="&lt;font style=&quot;font-size: 14px&quot;&gt;12:存在-&lt;span style=&quot;font-family: &amp;#34;helvetica&amp;#34;&quot;&gt;更新采集任务状态DONE&lt;/span&gt;&lt;br style=&quot;font-family: &amp;#34;helvetica&amp;#34;&quot;&gt;&lt;span style=&quot;font-family: &amp;#34;helvetica&amp;#34;&quot;&gt;agdsdatahub_dmc_task&lt;/span&gt;&lt;/font&gt;" style="html=1;verticalAlign=bottom;endArrow=block;labelBackgroundColor=none;fontFamily=Verdana;fontSize=14;elbow=vertical;edgeStyle=orthogonalEdgeStyle;curved=1;" edge="1" parent="1">
          <mxGeometry x="-0.3277" y="-71" relative="1" as="geometry">
            <mxPoint x="1240" y="800" as="sourcePoint" />
            <mxPoint x="1240" y="839" as="targetPoint" />
            <Array as="points">
              <mxPoint x="1280" y="800.1" />
              <mxPoint x="1280" y="839.1" />
            </Array>
            <mxPoint x="141" y="10" as="offset" />
          </mxGeometry>
        </mxCell>
        <mxCell id="mJ4E80UMNXYQeGc1e3ib-41" value="&lt;font style=&quot;font-size: 14px&quot;&gt;&lt;br&gt;&lt;/font&gt;" style="html=1;verticalAlign=bottom;endArrow=block;labelBackgroundColor=none;fontFamily=Verdana;fontSize=14;elbow=vertical;edgeStyle=orthogonalEdgeStyle;curved=1;" edge="1" parent="1">
          <mxGeometry x="-0.3277" y="80" relative="1" as="geometry">
            <mxPoint x="1240" y="870" as="sourcePoint" />
            <mxPoint x="1240" y="909" as="targetPoint" />
            <Array as="points">
              <mxPoint x="1280" y="870.1" />
              <mxPoint x="1280" y="909.1" />
            </Array>
            <mxPoint as="offset" />
          </mxGeometry>
        </mxCell>
        <mxCell id="mJ4E80UMNXYQeGc1e3ib-42" value="" style="endArrow=classic;html=1;fontSize=14;entryX=1;entryY=0.6;entryDx=0;entryDy=0;entryPerimeter=0;" edge="1" parent="1">
          <mxGeometry width="50" height="50" relative="1" as="geometry">
            <mxPoint x="1239.5" y="932" as="sourcePoint" />
            <mxPoint x="845" y="930" as="targetPoint" />
            <Array as="points">
              <mxPoint x="1010" y="932" />
              <mxPoint x="920" y="932" />
            </Array>
          </mxGeometry>
        </mxCell>
        <mxCell id="mJ4E80UMNXYQeGc1e3ib-43" value="&lt;font style=&quot;font-size: 14px&quot;&gt;&lt;span style=&quot;background-color: rgb(248 , 249 , 250)&quot;&gt;14:存储采集信息&lt;/span&gt;&lt;br style=&quot;background-color: rgb(248 , 249 , 250)&quot;&gt;&lt;span style=&quot;background-color: rgb(248 , 249 , 250)&quot;&gt;agdsdatahub_dmc_model_data&lt;/span&gt;&lt;/font&gt;" style="edgeLabel;html=1;align=center;verticalAlign=middle;resizable=0;points=[];fontSize=14;" vertex="1" connectable="0" parent="mJ4E80UMNXYQeGc1e3ib-42">
          <mxGeometry x="0.3155" y="-4" relative="1" as="geometry">
            <mxPoint x="-10.5" y="-18" as="offset" />
          </mxGeometry>
        </mxCell>
        <mxCell id="mJ4E80UMNXYQeGc1e3ib-44" value="" style="endArrow=classic;html=1;fontSize=14;" edge="1" parent="1">
          <mxGeometry width="50" height="50" relative="1" as="geometry">
            <mxPoint x="1240" y="990" as="sourcePoint" />
            <mxPoint x="650" y="990" as="targetPoint" />
            <Array as="points">
              <mxPoint x="800.5" y="990" />
            </Array>
          </mxGeometry>
        </mxCell>
        <mxCell id="mJ4E80UMNXYQeGc1e3ib-45" value="&lt;font style=&quot;font-size: 14px&quot;&gt;15:更新采集任务状态DONE&lt;br&gt;agdsdatahub_dmc_task&lt;/font&gt;" style="text;html=1;align=center;verticalAlign=middle;resizable=0;points=[];autosize=1;fontSize=14;" vertex="1" parent="1">
          <mxGeometry x="655" y="940" width="190" height="40" as="geometry" />
        </mxCell>
        <mxCell id="mJ4E80UMNXYQeGc1e3ib-46" value="&lt;font style=&quot;font-size: 14px&quot;&gt;16:&lt;span style=&quot;font-family: &amp;#34;helvetica&amp;#34;&quot;&gt;保存采集数据到HBASE&lt;/span&gt;&lt;br&gt;&lt;/font&gt;" style="html=1;verticalAlign=bottom;endArrow=block;labelBackgroundColor=none;fontFamily=Verdana;fontSize=14;elbow=vertical;edgeStyle=orthogonalEdgeStyle;curved=1;" edge="1" parent="1">
          <mxGeometry x="-0.3277" y="-81" relative="1" as="geometry">
            <mxPoint x="1239.9999999999995" y="1010" as="sourcePoint" />
            <mxPoint x="1239.9999999999995" y="1049" as="targetPoint" />
            <Array as="points">
              <mxPoint x="1280" y="1010" />
              <mxPoint x="1280" y="1049" />
            </Array>
            <mxPoint x="161" y="10" as="offset" />
          </mxGeometry>
        </mxCell>
        <mxCell id="mJ4E80UMNXYQeGc1e3ib-47" value="&lt;font style=&quot;font-size: 14px&quot;&gt;&lt;br&gt;&lt;/font&gt;" style="html=1;verticalAlign=bottom;endArrow=block;labelBackgroundColor=none;fontFamily=Verdana;fontSize=14;elbow=vertical;edgeStyle=orthogonalEdgeStyle;curved=1;" edge="1" parent="1">
          <mxGeometry x="-0.3277" y="80" relative="1" as="geometry">
            <mxPoint x="1239.9999999999995" y="1080" as="sourcePoint" />
            <mxPoint x="1239.9999999999995" y="1119" as="targetPoint" />
            <Array as="points">
              <mxPoint x="1280" y="1080.1" />
              <mxPoint x="1280" y="1119.1" />
            </Array>
            <mxPoint as="offset" />
          </mxGeometry>
        </mxCell>
        <mxCell id="mJ4E80UMNXYQeGc1e3ib-48" value="&lt;span style=&quot;font-family: &amp;#34;verdana&amp;#34;&quot;&gt;17:&lt;/span&gt;&lt;span style=&quot;font-family: &amp;#34;helvetica&amp;#34;&quot;&gt;发送采集完成事件&lt;/span&gt;" style="text;html=1;align=center;verticalAlign=middle;resizable=0;points=[];autosize=1;fontSize=14;" vertex="1" parent="1">
          <mxGeometry x="1260" y="1070" width="150" height="20" as="geometry" />
        </mxCell>
        <mxCell id="mJ4E80UMNXYQeGc1e3ib-49" value="" style="html=1;points=[];perimeter=orthogonalPerimeter;rounded=0;shadow=0;comic=0;labelBackgroundColor=none;strokeWidth=1;fontFamily=Verdana;fontSize=12;align=center;" vertex="1" parent="1">
          <mxGeometry x="835" y="920" width="10" height="30" as="geometry" />
        </mxCell>
        <mxCell id="mJ4E80UMNXYQeGc1e3ib-50" value="&lt;span style=&quot;font-family: &amp;#34;verdana&amp;#34;&quot;&gt;13:调用采集模块doInModule进行采集&lt;/span&gt;" style="text;html=1;align=center;verticalAlign=middle;resizable=0;points=[];autosize=1;fontSize=14;" vertex="1" parent="1">
          <mxGeometry x="1250" y="850" width="260" height="20" as="geometry" />
        </mxCell>
      </root>
    </mxGraphModel>
  </diagram>
</mxfile>
